# xmcd
#
# Track frame offsets:
#	150
#	18767
#	38171
#	61254
#	78208
#	93758
#	116236
#	142885
#	161973
#	186355
#	206278
#	233239
#
# Disc length: 3434 seconds
#
# Revision: 0
# Processed by: cddbd v1.5.2PL0 Copyright (c) Steve Scherf et al.
# Submitted via: EasyCDDAExtractor 10.0.2.1
#
DISCID=940d680c
DTITLE=Viva Death - One Percent Panic
DYEAR=2006
DGENRE=Alternative
TTITLE0=Broken Nose
TTITLE1=Be Excited
TTITLE2=Suspect
TTITLE3=You Can't Love
TTITLE4=Behind You, Soldier
TTITLE5=United by the Threat of a Common Enemy
TTITLE6=Defector
TTITLE7=Rise and Shine
TTITLE8=The Fear
TTITLE9=Damage Control
TTITLE10=White Car
TTITLE11=Into the Void
EXTD=
EXTT0=
EXTT1=
EXTT2=
EXTT3=
EXTT4=
EXTT5=
EXTT6=
EXTT7=
EXTT8=
EXTT9=
EXTT10=
EXTT11=
PLAYORDER=
